<?xml version="1.0" encoding="utf-8"?>
<!-- Generator: Adobe Illustrator 21.0.2, SVG Export Plug-In . SVG Version: 6.00 Build 0)  -->
<svg version="1.1" id="Layer_1" xmlns="http://www.w3.org/2000/svg" xmlns:xlink="http://www.w3.org/1999/xlink" x="0px" y="0px"
	 width="484.4px" height="270.8px" viewBox="0 0 484.4 270.8" style="enable-background:new 0 0 484.4 270.8;" xml:space="preserve"
	>
<style type="text/css">
	.st0{fill:#1A171B;}
	.st1{fill:#BE0A26;}
	.st2{clip-path:url(#SVGID_2_);}
	.st3{clip-path:url(#SVGID_4_);}
	.st4{fill:url(#SVGID_5_);}
	.st5{fill:url(#SVGID_6_);}
	.st6{fill:url(#SVGID_7_);}
	.st7{fill:url(#SVGID_8_);}
	.st8{fill:url(#SVGID_9_);}
	.st9{fill:url(#SVGID_10_);}
	.st10{fill:url(#SVGID_11_);}
	.st11{fill:url(#SVGID_12_);}
	.st12{fill:none;}
</style>
<title>logo</title>
<path class="st0" d="M132.1,157.7h5.9c0.2,0.1,0.3,0.3,0.3,0.6v32c0,0.4-0.1,0.6-0.3,0.6h-5.9l-0.2-0.2v-32.8L132.1,157.7z"/>
<path class="st0" d="M155.2,157.2h0.4c2.2,0,3.8,1.2,4.7,3.6l0.2,0.8h0.1c2.8-2.9,5.5-4.4,8.1-4.4h0.5c2.4,0,4,1.4,4.8,4.1
	c0.3,1.1,0.4,2.2,0.4,3.3v26.1l-0.3,0.3h-5.8l-0.3-0.3v-24.3c0-2.3-0.7-3.5-2.2-3.5c-1.7,0-3.3,1.1-4.9,3.3v24.5l-0.3,0.3h-5.8
	l-0.3-0.3v-24c0-2.5-0.7-3.8-2.2-3.8c-1.7,0-3.4,1.1-4.9,3.3v24.2c0,0.4-0.1,0.6-0.3,0.6h-5.9l-0.2-0.2v-32.8l0.2-0.2h5.9
	c0.2,0.1,0.3,0.3,0.3,0.6v3.2C150.1,158.6,152.7,157.2,155.2,157.2z"/>
<path class="st0" d="M189.3,157.2h0.6c3.5,0,5.6,2.6,6.3,7.8l0.2,4.5v9.4c0,6.8-1.3,10.7-3.8,11.9c-0.9,0.5-2,0.7-3,0.7
	c-2.1,0-4.5-1.1-7.1-3.4h-0.1v13.6c0,0.4-0.1,0.6-0.3,0.6h-5.9l-0.2-0.2v-44.2l0.2-0.2h5.9c0.2,0.1,0.3,0.3,0.3,0.6v2.2h0.1
	C185.2,158.3,187.5,157.2,189.3,157.2z M182.5,164.5v19.6c1.2,0.9,2.7,1.4,4.2,1.5c1.2,0.1,2.4-0.7,2.8-1.8c0.4-1.4,0.6-2.8,0.5-4.3
	v-10.5c0-2.8-0.4-4.6-1.1-5.4c-0.7-0.5-1.4-0.7-2.2-0.7C185.1,163,183.6,163.6,182.5,164.5L182.5,164.5z"/>
<path class="st0" d="M198.1,157.7h5.9c0.2,0.1,0.3,0.3,0.3,0.6v24.3c0.2,2,0.8,3,1.7,3l0.4,0.1h0.2c1.7,0,3.3-1.1,4.8-3.3V158
	l0.2-0.2h5.9l0.3,0.3v32.6l-0.3,0.3h-5.8l-0.3-0.3v-3.5h-0.1c-2.7,2.9-5.3,4.3-7.9,4.3h-0.4c-2.3,0-3.9-1.3-4.8-3.9
	c-0.3-1.1-0.4-2.2-0.4-3.4V158L198.1,157.7z"/>
<path class="st0" d="M219.7,146.4h5.9c0.2,0.1,0.3,0.3,0.3,0.6v43.4c0,0.4-0.1,0.6-0.3,0.6h-5.9l-0.2-0.2v-44.2L219.7,146.4z"/>
<path class="st0" d="M237.3,156.7h0.8c4.8,0,8.3,2.7,10.3,8.1c-1.8,0.9-3.7,1.7-5.6,2.4h-0.1c-0.5-0.7-0.9-1.5-1.2-2.3
	c-0.8-1.4-2.4-2.3-4-2.3c-2,0-3.1,1-3.1,3c0,1.3,1.2,2.6,3.6,3.9c3.2,1.6,6.2,3.6,9,5.9c1.3,1.7,2,3.7,2,5.8v0.4
	c0,4.9-2.5,8.1-7.6,9.6l-2.2,0.2h-0.9c-5.1,0-8.7-3.1-10.8-9.2v-0.2c0-0.2,1.9-0.8,5.8-2c1.3,3.7,3.2,5.6,5.5,5.6
	c2.2-0.3,3.4-1.4,3.4-3.2c0-1.9-2.3-4-7-6.2c-4.1-2.5-6.4-4.8-6.8-6.8c-0.4-1-0.5-2-0.5-3.1V166c0-4.4,2.3-7.4,7-9
	C235.6,156.8,236.4,156.7,237.3,156.7z"/>
<path class="st0" d="M260.6,156.8h0.8c4.9,0,8.1,2.5,9.4,7.6c0.3,1.5,0.4,2.9,0.4,4.4v6.2l-0.2,0.2h-13.8l-0.2,0.2v3.6
	c0,3.7,0.8,5.8,2.2,6.3l1.7,0.3c2.6,0,3.9-1.6,3.9-4.7v-1.4l0.3-0.3h5.8c0.2,0,0.3,0.1,0.3,0.4c0,5.5-1.3,8.9-4,10.2
	c-1.8,1.2-3.8,1.7-5.9,1.6h-0.8c-6.7,0-10-4-10-12v-11.4c0-4,0.8-6.7,2.3-8.2C255,157.8,257.7,156.7,260.6,156.8z M257,167.4v2
	l0.2,0.2h7.4c0.2,0,0.3-0.1,0.3-0.4c0-3.5-0.7-5.7-2-6.3c-0.6-0.2-1.3-0.4-1.9-0.4c-1.6-0.1-3,0.9-3.5,2.4
	C257.2,165.7,257,166.5,257,167.4L257,167.4z"/>
<circle class="st1" cx="134.3" cy="136.2" r="8.6"/>
<g>
	<defs>
		<rect id="SVGID_1_" x="125.2" y="101.2" width="146.2" height="45.2"/>
	</defs>
	<clipPath id="SVGID_2_">
		<use xlink:href="#SVGID_1_"  style="overflow:visible;"/>
	</clipPath>
	<g class="st2">
		<g>
			<defs>
				<rect id="SVGID_3_" x="134.1" y="81.8" width="142.3" height="58.6"/>
			</defs>
			<clipPath id="SVGID_4_">
				<use xlink:href="#SVGID_3_"  style="overflow:visible;"/>
			</clipPath>
			<g class="st3">
				
					<linearGradient id="SVGID_5_" gradientUnits="userSpaceOnUse" x1="10.1693" y1="218.8913" x2="10.1693" y2="252.7313" gradientTransform="matrix(1 0 0 -1 125.2248 371.185)">
					<stop  offset="0.4" style="stop-color:#000000"/>
					<stop  offset="1" style="stop-color:#FFFFFF"/>
				</linearGradient>
				<path class="st4" d="M135.4,120c-8.5,0-15.4,6.9-15.4,15.4s6.9,15.4,15.4,15.4c8.5,0,15.4-6.9,15.4-15.4
					C150.8,126.9,143.9,120,135.4,120C135.4,120,135.4,120,135.4,120z M152.3,135.4c0,9.3-7.6,16.9-16.9,16.9s-16.9-7.6-16.9-16.9
					c0-9.3,7.6-16.9,16.9-16.9C144.7,118.5,152.3,126,152.3,135.4C152.3,135.4,152.3,135.4,152.3,135.4z"/>
				
					<linearGradient id="SVGID_6_" gradientUnits="userSpaceOnUse" x1="10.1494" y1="201.9513" x2="10.1494" y2="269.6513" gradientTransform="matrix(1 0 0 -1 125.2248 371.185)">
					<stop  offset="0.4" style="stop-color:#000000"/>
					<stop  offset="1" style="stop-color:#FFFFFF"/>
				</linearGradient>
				<path class="st5" d="M135.4,104.6c-17,0-30.8,13.8-30.8,30.8s13.8,30.8,30.8,30.8s30.8-13.8,30.8-30.8l0,0
					C166.2,118.4,152.4,104.6,135.4,104.6z M169.2,135.4c0,18.7-15.1,33.9-33.8,33.9s-33.9-15.1-33.9-33.8s15.1-33.9,33.8-33.9
					c0,0,0,0,0,0C154.1,101.5,169.2,116.7,169.2,135.4z"/>
				
					<linearGradient id="SVGID_7_" gradientUnits="userSpaceOnUse" x1="10.1593" y1="185.0413" x2="10.1593" y2="286.5813" gradientTransform="matrix(1 0 0 -1 125.2248 371.185)">
					<stop  offset="0.4" style="stop-color:#000000"/>
					<stop  offset="1" style="stop-color:#FFFFFF"/>
				</linearGradient>
				<path class="st6" d="M135.4,89.2c-25.5,0-46.1,20.7-46.1,46.1c0,25.5,20.7,46.1,46.1,46.1c25.5,0,46.1-20.6,46.1-46.1
					C181.6,109.9,160.9,89.2,135.4,89.2C135.4,89.2,135.4,89.2,135.4,89.2z M186.2,135.4c0,28-22.7,50.8-50.8,50.8
					s-50.8-22.7-50.8-50.8s22.7-50.8,50.8-50.8c0,0,0,0,0,0C163.4,84.6,186.2,107.3,186.2,135.4z"/>
				
					<linearGradient id="SVGID_8_" gradientUnits="userSpaceOnUse" x1="10.1593" y1="168.1213" x2="10.1593" y2="303.5013" gradientTransform="matrix(1 0 0 -1 125.2248 371.185)">
					<stop  offset="0.4" style="stop-color:#000000"/>
					<stop  offset="1" style="stop-color:#FFFFFF"/>
				</linearGradient>
				<path class="st7" d="M135.4,73.8c-34,0-61.5,27.6-61.5,61.5s27.6,61.5,61.5,61.5s61.5-27.6,61.5-61.5l0,0
					C196.9,101.4,169.4,73.8,135.4,73.8z M203.1,135.4c0,37.4-30.3,67.7-67.7,67.7s-67.7-30.3-67.7-67.7S98,67.7,135.4,67.7
					c0,0,0,0,0,0C172.8,67.7,203.1,98,203.1,135.4z"/>
				
					<linearGradient id="SVGID_9_" gradientUnits="userSpaceOnUse" x1="10.1593" y1="151.1813" x2="10.1593" y2="320.4213" gradientTransform="matrix(1 0 0 -1 125.2248 371.185)">
					<stop  offset="0.4" style="stop-color:#000000"/>
					<stop  offset="1" style="stop-color:#FFFFFF"/>
				</linearGradient>
				<path class="st8" d="M135.4,58.5c-42.5,0-76.9,34.4-76.9,76.9s34.4,76.9,76.9,76.9s76.9-34.4,76.9-76.9S177.9,58.5,135.4,58.5
					C135.4,58.5,135.4,58.5,135.4,58.5z M220,135.4c0,46.7-37.9,84.6-84.6,84.6s-84.6-37.9-84.6-84.6s37.9-84.6,84.6-84.6
					c0,0,0,0,0,0C182.1,50.8,220,88.6,220,135.4z"/>
				
					<linearGradient id="SVGID_10_" gradientUnits="userSpaceOnUse" x1="10.1593" y1="134.2713" x2="10.1593" y2="337.3513" gradientTransform="matrix(1 0 0 -1 125.2248 371.185)">
					<stop  offset="0.4" style="stop-color:#000000"/>
					<stop  offset="1" style="stop-color:#FFFFFF"/>
				</linearGradient>
				<path class="st9" d="M135.4,43.1c-51,0-92.3,41.3-92.3,92.3s41.3,92.3,92.3,92.3c51,0,92.3-41.3,92.3-92.3c0,0,0,0,0,0
					C227.7,84.4,186.4,43.1,135.4,43.1z M236.9,135.4c0,56.1-45.5,101.5-101.5,101.5c-56.1,0-101.5-45.5-101.5-101.5
					c0-56.1,45.5-101.5,101.5-101.5c0,0,0,0,0,0C191.5,33.8,236.9,79.3,236.9,135.4z"/>
				
					<linearGradient id="SVGID_11_" gradientUnits="userSpaceOnUse" x1="10.1593" y1="117.3513" x2="10.1593" y2="354.2713" gradientTransform="matrix(1 0 0 -1 125.2248 371.185)">
					<stop  offset="0.4" style="stop-color:#000000"/>
					<stop  offset="1" style="stop-color:#FFFFFF"/>
				</linearGradient>
				<path class="st10" d="M135.4,27.7c-59.5,0-107.7,48.2-107.7,107.7s48.2,107.7,107.7,107.7s107.7-48.2,107.7-107.7c0,0,0,0,0,0
					C243.1,75.9,194.9,27.7,135.4,27.7z M253.8,135.4c0,65.4-53,118.5-118.5,118.5c-65.4,0-118.5-53-118.5-118.5S70,16.9,135.4,16.9
					c0,0,0,0,0,0C200.8,16.9,253.8,70,253.8,135.4z"/>
				
					<linearGradient id="SVGID_12_" gradientUnits="userSpaceOnUse" x1="10.1693" y1="100.4313" x2="10.1693" y2="371.1913" gradientTransform="matrix(1 0 0 -1 125.2248 371.185)">
					<stop  offset="0.4" style="stop-color:#000000"/>
					<stop  offset="1" style="stop-color:#FFFFFF"/>
				</linearGradient>
				<path class="st11" d="M135.4,12.3c-68,0-123.1,55.1-123.1,123.1s55.1,123.1,123.1,123.1s123.1-55.1,123.1-123.1c0,0,0,0,0,0
					C258.5,67.4,203.4,12.3,135.4,12.3C135.4,12.3,135.4,12.3,135.4,12.3z M270.8,135.4c0,74.8-60.6,135.4-135.4,135.4
					S0,210.1,0,135.4C0,60.6,60.6,0,135.4,0C210.2,0,270.8,60.6,270.8,135.4C270.8,135.4,270.8,135.4,270.8,135.4z"/>
			</g>
		</g>
	</g>
</g>
<g>
	<rect x="287" y="180" class="st12" width="183" height="34"/>
	<path d="M288.2,180h7.9v1.3h-6.4v3.6h5.9v1.3h-5.9v4h6.4v1.3h-7.9V180z"/>
	<path d="M299.2,181.7h-1.4V180h1.4V181.7z M297.9,183.1h1.4v8.3h-1.4V183.1z"/>
	<path d="M301.4,183.1h1.3v1.3h0c0.6-1,1.5-1.5,2.7-1.5c2.2,0,2.8,1.2,2.8,3v5.4h-1.4v-5.6c0-1-0.6-1.7-1.7-1.7
		c-1.6,0-2.4,1.1-2.4,2.6v4.7h-1.4V183.1z"/>
	<path d="M318,180h1.7l4.5,11.4h-1.7l-1.2-3.4h-4.8l-1.3,3.4h-1.6L318,180z M316.9,186.7h3.9l-1.9-5.3h0L316.9,186.7z"/>
	<path d="M325,183.1h1.3v1.7h0c0.7-1.3,1.6-2,3-1.9v1.4c-2.2,0-3,1.2-3,3.3v3.7H325V183.1z"/>
	<path d="M330.4,180h1.4v4.3h0c0.4-0.9,1.5-1.3,2.6-1.3c2.5,0,3.8,2,3.8,4.4s-1.2,4.3-3.8,4.3c-0.8,0-2.1-0.3-2.7-1.3h0v1.1h-1.4
		V180z M334.3,184.2c-1.8,0-2.5,1.6-2.5,3.1c0,1.6,0.7,3.1,2.6,3.1c1.9,0,2.5-1.6,2.5-3.2C336.8,185.7,336,184.2,334.3,184.2z"/>
	<path d="M346.9,188.8c-0.4,1.8-1.7,2.8-3.5,2.8c-2.6,0-3.9-1.8-4-4.4c0-2.5,1.6-4.3,3.9-4.3c2.9,0,3.8,2.7,3.7,4.7h-6.2
		c0,1.4,0.8,2.7,2.6,2.7c1.1,0,1.9-0.5,2.1-1.6H346.9z M345.6,186.5c-0.1-1.3-1-2.3-2.4-2.3c-1.4,0-2.3,1.1-2.4,2.3H345.6z"/>
	<path d="M349.9,181.7h-1.4V180h1.4V181.7z M348.6,183.1h1.4v8.3h-1.4V183.1z"/>
	<path d="M353.9,183.1h1.6v1.2h-1.6v5.1c0,0.6,0.2,0.7,1,0.7h0.6v1.2h-1c-1.4,0-2-0.3-2-1.8v-5.3h-1.4v-1.2h1.4v-2.5h1.4V183.1z"/>
	<path d="M357.9,188.8c0,1.2,1.1,1.6,2.2,1.6c0.8,0,2-0.2,2-1.2c0-1.1-1.3-1.2-2.7-1.5c-1.3-0.3-2.7-0.8-2.7-2.3
		c0-1.7,1.6-2.4,3.1-2.4c1.8,0,3.3,0.6,3.4,2.6h-1.4c-0.1-1.1-1-1.4-1.9-1.4c-0.8,0-1.8,0.2-1.8,1.1c0,1,1.4,1.2,2.7,1.4
		c1.4,0.3,2.7,0.8,2.7,2.4c0,2-1.8,2.6-3.5,2.6c-1.9,0-3.4-0.8-3.5-2.8H357.9z"/>
	<path d="M365.1,183.1h1.3v1.2h0c0.6-0.9,1.5-1.4,2.7-1.4c1,0,1.9,0.4,2.3,1.4c0.6-0.9,1.5-1.4,2.6-1.4c1.6,0,2.8,0.7,2.8,2.4v6.1
		h-1.4V186c0-1-0.3-1.8-1.6-1.8c-1.3,0-2.2,0.8-2.2,2.1v5.2h-1.4V186c0-1.1-0.3-1.8-1.6-1.8c-1.6,0-2.2,1.5-2.2,2.1v5.2h-1.4V183.1z
		"/>
	<path d="M386,191.4c-0.2,0.1-0.5,0.2-1,0.2c-0.7,0-1.2-0.4-1.2-1.3c-0.8,0.9-1.8,1.3-2.9,1.3c-1.5,0-2.7-0.7-2.7-2.3
		c0-1.9,1.4-2.3,2.8-2.5c1.5-0.3,2.8-0.2,2.8-1.2c0-1.2-1-1.4-1.8-1.4c-1.2,0-2,0.4-2.1,1.6h-1.4c0.1-2,1.7-2.8,3.5-2.8
		c1.5,0,3.1,0.3,3.1,2.3v4.3c0,0.6,0,0.9,0.4,0.9c0.1,0,0.2,0,0.4-0.1V191.4z M383.8,187.2c-0.5,0.4-1.6,0.4-2.5,0.6
		c-0.9,0.2-1.7,0.5-1.7,1.5c0,0.9,0.8,1.2,1.6,1.2c1.8,0,2.5-1.1,2.5-1.9V187.2z"/>
	<path d="M387.3,183.1h1.3v1.7h0c0.7-1.3,1.6-2,3-1.9v1.4c-2.2,0-3,1.2-3,3.3v3.7h-1.4V183.1z"/>
	<path d="M392.7,180h1.4v6.8l3.8-3.6h1.8l-3.3,3l3.5,5.3h-1.7l-2.8-4.3l-1.3,1.2v3.1h-1.4V180z"/>
	<path d="M402.8,183.1h1.6v1.2h-1.6v5.1c0,0.6,0.2,0.7,1,0.7h0.6v1.2h-1c-1.4,0-2-0.3-2-1.8v-5.3h-1.4v-1.2h1.4v-2.5h1.4V183.1z"/>
	<path d="M411,184.3h-1.4v-1.2h1.4v-1.2c0-1.3,0.8-2,2.3-2c0.3,0,0.6,0,0.9,0.1v1.2c-0.2-0.1-0.5-0.1-0.8-0.1c-0.7,0-1,0.2-1,0.9
		v1.2h1.6v1.2h-1.6v7.1H411V184.3z"/>
	<path d="M422,191.4h-1.3v-1.3h0c-0.6,1-1.5,1.5-2.7,1.5c-2.2,0-2.8-1.2-2.8-3v-5.4h1.4v5.6c0,1,0.6,1.7,1.7,1.7
		c1.6,0,2.4-1.1,2.4-2.6v-4.7h1.4V191.4z M416.4,180.3h1.4v1.7h-1.4V180.3z M419.4,180.3h1.4v1.7h-1.4V180.3z"/>
	<path d="M424,183.1h1.3v1.7h0c0.7-1.3,1.6-2,3-1.9v1.4c-2.2,0-3,1.2-3,3.3v3.7H424V183.1z"/>
	<path d="M441.2,191.4c-0.2,0.1-0.5,0.2-1,0.2c-0.7,0-1.2-0.4-1.2-1.3c-0.8,0.9-1.8,1.3-2.9,1.3c-1.5,0-2.7-0.7-2.7-2.3
		c0-1.9,1.4-2.3,2.8-2.5c1.5-0.3,2.8-0.2,2.8-1.2c0-1.2-1-1.4-1.8-1.4c-1.2,0-2,0.4-2.1,1.6h-1.4c0.1-2,1.7-2.8,3.5-2.8
		c1.5,0,3.1,0.3,3.1,2.3v4.3c0,0.6,0,0.9,0.4,0.9c0.1,0,0.2,0,0.4-0.1V191.4z M439,187.2c-0.5,0.4-1.6,0.4-2.5,0.6
		c-0.9,0.2-1.7,0.5-1.7,1.5c0,0.9,0.8,1.2,1.6,1.2c1.8,0,2.5-1.1,2.5-1.9V187.2z"/>
	<path d="M442.5,180h1.4v11.4h-1.4V180z"/>
	<path d="M446.1,180h1.4v11.4h-1.4V180z"/>
	<path d="M456.6,188.8c-0.4,1.8-1.7,2.8-3.5,2.8c-2.6,0-3.9-1.8-4-4.4c0-2.5,1.6-4.3,3.9-4.3c2.9,0,3.8,2.7,3.7,4.7h-6.2
		c0,1.4,0.8,2.7,2.6,2.7c1.1,0,1.9-0.5,2.1-1.6H456.6z M455.3,186.5c-0.1-1.3-1-2.3-2.4-2.3c-1.4,0-2.3,1.1-2.4,2.3H455.3z"/>
	<path d="M458.4,189.6h1.8v1.8h-1.8V189.6z"/>
</g>
</svg>
